<svg width="142" height="25" viewBox="0 0 142 25" fill="none" xmlns="http://www.w3.org/2000/svg">
<path d="M14.128 19H10L3.784 10.312V19H0.16V1.864H3.784V10.168L9.928 1.864H13.792L7.552 10.096L14.128 19ZM23.293 5.656C24.765 5.656 25.957 6.232 26.869 7.384C27.781 8.52 28.237 10.2 28.237 12.424C28.237 13.912 28.021 15.168 27.589 16.192C27.157 17.2 26.565 17.96 25.813 18.472C25.061 18.984 24.189 19.24 23.197 19.24C22.573 19.24 22.029 19.16 21.565 19C21.117 18.84 20.733 18.632 20.413 18.376C20.093 18.12 19.813 17.848 19.573 17.56H19.381C19.445 17.864 19.493 18.184 19.525 18.52C19.557 18.84 19.573 19.16 19.573 19.48V24.76H15.997V5.896H18.901L19.405 7.6H19.573C19.813 7.248 20.101 6.928 20.437 6.64C20.773 6.336 21.173 6.096 21.637 5.92C22.117 5.744 22.669 5.656 23.293 5.656ZM22.141 8.512C21.517 8.512 21.021 8.64 20.653 8.896C20.285 9.152 20.013 9.544 19.837 10.072C19.677 10.584 19.589 11.232 19.573 12.016V12.4C19.573 13.248 19.653 13.968 19.813 14.56C19.973 15.136 20.245 15.576 20.629 15.88C21.013 16.184 21.533 16.336 22.189 16.336C22.733 16.336 23.181 16.184 23.533 15.88C23.885 15.576 24.149 15.128 24.325 14.536C24.501 13.944 24.589 13.224 24.589 12.376C24.589 11.096 24.389 10.136 23.989 9.496C23.605 8.84 22.989 8.512 22.141 8.512ZM43.0885 12.424C43.0885 13.512 42.9365 14.48 42.6325 15.328C42.3445 16.176 41.9205 16.896 41.3605 17.488C40.8165 18.064 40.1525 18.504 39.3685 18.808C38.5845 19.096 37.6965 19.24 36.7045 19.24C35.7925 19.24 34.9445 19.096 34.1605 18.808C33.3925 18.504 32.7285 18.064 32.1685 17.488C31.6085 16.896 31.1685 16.176 30.8485 15.328C30.5445 14.48 30.3925 13.512 30.3925 12.424C30.3925 10.968 30.6485 9.744 31.1605 8.752C31.6725 7.744 32.4085 6.976 33.3685 6.448C34.3285 5.92 35.4645 5.656 36.7765 5.656C38.0085 5.656 39.0965 5.92 40.0405 6.448C40.9845 6.976 41.7285 7.744 42.2725 8.752C42.8165 9.744 43.0885 10.968 43.0885 12.424ZM34.0405 12.424C34.0405 13.288 34.1285 14.016 34.3045 14.608C34.4965 15.184 34.7925 15.624 35.1925 15.928C35.5925 16.216 36.1125 16.36 36.7525 16.36C37.3925 16.36 37.9045 16.216 38.2885 15.928C38.6885 15.624 38.9765 15.184 39.1525 14.608C39.3445 14.016 39.4405 13.288 39.4405 12.424C39.4405 11.56 39.3445 10.84 39.1525 10.264C38.9765 9.688 38.6885 9.256 38.2885 8.968C37.8885 8.68 37.3685 8.536 36.7285 8.536C35.7845 8.536 35.0965 8.864 34.6645 9.52C34.2485 10.16 34.0405 11.128 34.0405 12.424ZM49.6199 5.896V10.936H54.6119V5.896H58.1879V19H54.6119V13.6H49.6199V19H46.0439V5.896H49.6199ZM81.4465 5.896V19H61.9345V5.896H65.5105V16.312H69.9025V5.896H73.4785V16.312H77.8705V5.896H81.4465ZM96.0325 8.584H91.7365V19H88.1605V8.584H83.8645V5.896H96.0325V8.584ZM103.616 5.656C104.832 5.656 105.872 5.888 106.736 6.352C107.616 6.816 108.296 7.488 108.776 8.368C109.256 9.248 109.496 10.328 109.496 11.608V13.336H101.048C101.08 14.344 101.376 15.136 101.936 15.712C102.512 16.288 103.304 16.576 104.312 16.576C105.16 16.576 105.928 16.496 106.616 16.336C107.304 16.16 108.016 15.896 108.752 15.544V18.304C108.112 18.624 107.432 18.856 106.712 19C106.008 19.16 105.152 19.24 104.144 19.24C102.832 19.24 101.672 19 100.664 18.52C99.6558 18.024 98.8638 17.28 98.2878 16.288C97.7118 15.296 97.4238 14.048 97.4238 12.544C97.4238 11.008 97.6798 9.736 98.1918 8.728C98.7198 7.704 99.4478 6.936 100.376 6.424C101.304 5.912 102.384 5.656 103.616 5.656ZM103.64 8.2C102.952 8.2 102.376 8.424 101.912 8.872C101.464 9.32 101.2 10.016 101.12 10.96H106.136C106.136 10.432 106.04 9.96 105.848 9.544C105.672 9.128 105.4 8.8 105.032 8.56C104.664 8.32 104.2 8.2 103.64 8.2ZM124.947 0.256C124.867 1.088 124.635 1.824 124.251 2.464C123.867 3.088 123.267 3.576 122.451 3.928C121.635 4.28 120.539 4.456 119.163 4.456C117.755 4.456 116.651 4.288 115.851 3.952C115.067 3.6 114.507 3.112 114.171 2.488C113.835 1.864 113.635 1.12 113.571 0.256H116.763C116.843 1.136 117.067 1.72 117.435 2.008C117.803 2.296 118.403 2.44 119.235 2.44C119.923 2.44 120.483 2.288 120.915 1.984C121.363 1.664 121.627 1.088 121.707 0.256H124.947ZM115.851 11.08C115.851 11.352 115.835 11.688 115.803 12.088C115.787 12.488 115.763 12.896 115.731 13.312C115.715 13.728 115.691 14.096 115.659 14.416C115.627 14.736 115.603 14.96 115.587 15.088L121.635 5.896H125.931V19H122.475V13.768C122.475 13.336 122.491 12.864 122.523 12.352C122.555 11.824 122.587 11.336 122.619 10.888C122.667 10.424 122.699 10.072 122.715 9.832L116.691 19H112.395V5.896H115.851V11.08ZM133.245 5.896V10.936H138.237V5.896H141.813V19H138.237V13.6H133.245V19H129.669V5.896H133.245Z" fill="#7cb305"/>
</svg>
