<?xml version="1.0" standalone="no"?>
<!DOCTYPE svg PUBLIC "-//W3C//DTD SVG 20010904//EN"
 "http://www.w3.org/TR/2001/REC-SVG-20010904/DTD/svg10.dtd">
<svg version="1.0" xmlns="http://www.w3.org/2000/svg"
 width="1152.000000pt" height="1152.000000pt" viewBox="0 0 1152.000000 1152.000000"
 preserveAspectRatio="xMidYMid meet">
<metadata>
Created by potrace 1.14, written by Peter Selinger 2001-2017
</metadata>
<g transform="translate(0.000000,1152.000000) scale(0.100000,-0.100000)"
fill="#000000" stroke="none">
<path d="M1066 10961 c-2 -3 -3 -2471 -3 -5483 l0 -5478 1158 0 1159 0 1 23
c0 12 1 1261 1 2774 0 1514 3 2753 7 2753 5 -1 40 -50 76 -108 6 -9 15 -21 20
-28 6 -6 28 -37 50 -68 22 -31 56 -78 75 -105 19 -27 43 -59 52 -72 9 -13 73
-103 142 -199 69 -96 131 -183 138 -193 25 -37 88 -122 108 -147 11 -14 20
-28 20 -32 0 -5 8 -17 18 -27 9 -10 28 -35 42 -56 14 -20 30 -42 36 -48 5 -7
13 -20 17 -29 3 -10 11 -18 16 -18 5 0 12 -8 16 -19 3 -10 17 -31 30 -47 14
-16 25 -34 25 -40 0 -7 7 -14 15 -18 8 -3 20 -16 25 -28 6 -13 21 -37 33 -53
12 -17 40 -55 62 -85 22 -30 43 -56 47 -58 5 -2 8 -8 8 -14 0 -11 51 -81 63
-86 4 -2 7 -10 7 -17 0 -7 4 -15 8 -17 4 -1 29 -33 55 -71 26 -37 51 -73 57
-80 28 -34 152 -208 175 -246 6 -9 13 -18 16 -21 3 -3 39 -52 79 -110 41 -58
77 -107 80 -110 3 -3 10 -12 15 -21 14 -24 128 -183 135 -189 3 -3 14 -18 24
-35 11 -16 23 -34 28 -40 33 -39 108 -148 108 -155 0 -4 4 -10 8 -12 4 -1 23
-25 42 -53 19 -27 39 -54 43 -60 4 -5 46 -64 93 -130 47 -66 93 -130 102 -143
9 -12 27 -37 40 -55 13 -17 52 -72 88 -122 72 -102 68 -96 160 -225 37 -52 71
-96 76 -98 4 -2 8 -9 8 -16 0 -7 9 -21 20 -31 11 -10 20 -24 20 -31 0 -7 4
-14 8 -16 9 -3 212 -284 212 -292 0 -3 8 -15 18 -25 20 -23 27 -32 72 -96 19
-28 38 -54 42 -60 9 -10 285 -397 322 -450 31 -44 176 -247 246 -343 33 -46
60 -87 60 -92 0 -4 4 -10 8 -12 4 -1 37 -43 72 -93 35 -49 68 -91 72 -93 4 -2
8 -8 8 -12 0 -7 75 -116 108 -155 5 -6 17 -24 28 -40 10 -17 21 -32 25 -35 3
-3 14 -20 24 -38 l19 -32 1324 0 1323 0 -22 33 c-13 17 -28 37 -34 44 -30 36
-33 41 -28 47 4 3 2 6 -3 6 -6 0 -34 34 -64 76 -30 42 -63 86 -73 98 -10 11
-26 33 -35 49 -9 15 -20 27 -24 27 -4 0 -8 6 -8 13 0 6 -14 26 -30 44 -17 18
-30 37 -30 42 0 6 -4 11 -10 11 -5 0 -10 6 -10 14 0 8 -4 16 -8 18 -4 2 -67
84 -140 183 -127 173 -149 201 -182 244 -8 11 -46 63 -85 116 -68 95 -117 160
-133 180 -4 6 -28 38 -52 72 -24 35 -48 63 -52 63 -4 0 -8 5 -8 10 0 6 -36 58
-80 116 -44 58 -80 109 -80 114 0 4 -3 10 -7 12 -8 3 -61 71 -93 118 -8 12
-23 31 -32 42 -10 12 -18 24 -18 27 0 3 -10 17 -22 31 -13 14 -52 66 -87 115
-36 50 -68 92 -71 95 -4 3 -21 28 -40 55 -19 28 -36 52 -40 55 -3 3 -17 21
-30 40 -13 19 -27 37 -30 40 -3 3 -17 21 -30 40 -14 19 -28 40 -32 45 -4 6
-26 33 -48 62 -22 29 -40 57 -40 63 0 5 -3 10 -7 10 -5 0 -19 17 -33 38 -14
20 -27 39 -30 42 -3 3 -17 21 -30 40 -14 19 -30 42 -37 50 -7 8 -48 65 -92
125 -45 61 -84 115 -89 120 -53 69 -102 136 -102 140 0 3 -8 13 -18 24 -9 10
-42 53 -72 95 -30 42 -58 76 -62 76 -5 0 -8 5 -8 10 0 6 -68 101 -150 213 -83
111 -158 213 -168 226 -9 13 -23 30 -29 37 -7 7 -13 17 -13 23 0 6 -4 11 -9
11 -5 0 -12 8 -15 18 -3 9 -21 34 -40 54 -19 20 -32 39 -30 41 2 2 -7 16 -21
31 -13 15 -30 36 -36 47 -6 11 -17 28 -26 37 -13 15 -70 91 -115 153 -9 13
-42 58 -73 99 -30 41 -63 86 -73 99 -9 13 -23 30 -29 37 -7 7 -13 17 -13 23 0
6 -4 11 -10 11 -5 0 -10 5 -10 11 0 6 -6 16 -13 23 -7 7 -46 59 -87 115 -41
56 -99 134 -127 172 -29 38 -53 72 -53 75 0 3 -6 11 -12 18 -15 15 -27 31
-137 181 -44 61 -85 115 -90 121 -4 6 -26 35 -47 65 -21 30 -41 56 -44 59 -3
3 -23 30 -45 60 -22 30 -44 60 -50 67 -5 7 -16 19 -23 28 -7 8 -10 15 -7 15 3
0 -3 8 -12 18 -30 31 -53 62 -48 62 3 0 -4 10 -15 23 -12 12 -29 34 -38 50 -9
15 -20 27 -24 27 -4 0 -8 6 -8 14 0 8 -3 16 -7 18 -15 6 -63 77 -63 92 0 8 6
19 13 23 6 4 17 16 22 25 14 23 216 291 229 303 6 6 27 33 45 60 19 28 38 52
41 55 3 3 19 23 36 45 28 39 35 47 62 79 6 8 12 20 12 26 0 5 3 10 8 10 4 0
18 17 32 37 14 20 30 41 35 47 6 6 37 47 70 91 33 44 64 85 70 92 18 22 30 37
70 93 22 30 48 63 59 72 10 10 15 18 11 18 -5 0 0 8 11 19 10 10 51 62 89 115
39 53 73 96 78 96 4 0 7 6 7 13 0 6 14 26 30 44 17 18 30 35 30 39 0 3 14 23
30 43 17 20 34 41 38 46 4 6 21 28 37 50 17 22 32 42 35 45 3 3 17 21 30 40
13 19 29 40 35 47 20 24 32 39 75 98 25 33 50 65 55 71 6 6 17 21 25 34 30 43
199 266 219 287 12 12 21 26 21 30 0 4 14 23 31 40 16 18 28 33 25 33 -6 0 23
36 51 66 7 7 13 15 13 19 0 4 6 12 13 19 6 7 21 25 32 40 42 59 100 131 107
134 5 2 8 8 8 13 0 8 51 77 128 174 4 6 21 28 37 50 17 22 32 42 35 45 3 3 45
59 95 125 49 66 95 126 102 133 7 7 13 17 13 20 0 4 12 21 28 39 15 17 36 43
47 59 11 15 28 36 38 46 9 10 14 18 11 18 -3 0 12 21 33 47 21 26 43 54 48 61
6 7 18 22 28 33 9 10 14 19 11 19 -4 0 9 17 27 39 37 41 44 51 220 286 66 87
125 163 132 167 7 4 8 8 4 8 -4 0 -3 6 3 13 44 51 64 77 88 112 15 22 35 47
44 56 10 9 18 20 18 25 0 5 12 20 25 33 14 13 25 29 25 37 0 8 4 14 8 14 5 0
25 24 45 53 20 28 47 63 59 77 13 14 39 48 58 75 19 27 41 56 48 65 7 8 54 69
103 135 50 66 95 127 102 135 7 8 26 33 42 55 17 22 33 42 38 43 4 2 5 8 1 13
-3 5 -1 9 4 9 5 0 27 25 47 55 21 30 42 55 47 55 4 0 8 7 8 15 0 7 6 18 12 22
7 4 18 16 23 25 6 9 43 59 83 112 39 52 72 96 72 99 0 2 -553 4 -1230 4 -1113
0 -1231 -2 -1245 -16 -25 -27 -95 -120 -95 -127 0 -4 -10 -15 -22 -25 -11 -11
-18 -19 -15 -19 6 0 -13 -27 -40 -55 -7 -8 -13 -17 -13 -21 0 -4 -7 -14 -15
-23 -9 -9 -78 -101 -155 -206 -77 -104 -143 -194 -148 -200 -4 -5 -19 -26 -32
-45 -14 -19 -29 -40 -35 -46 -5 -6 -17 -22 -25 -34 -8 -12 -20 -28 -25 -34 -9
-9 -42 -54 -122 -165 -10 -13 -30 -40 -46 -60 -38 -50 -50 -66 -67 -92 -8 -12
-25 -34 -37 -49 -13 -15 -23 -31 -23 -34 0 -3 -8 -14 -17 -24 -25 -26 -43 -51
-78 -102 -16 -25 -32 -47 -35 -50 -3 -3 -25 -32 -50 -65 -25 -33 -49 -63 -55
-67 -7 -5 -7 -8 0 -8 6 0 5 -3 -1 -8 -6 -4 -39 -45 -73 -92 -35 -47 -67 -86
-72 -88 -5 -2 -9 -10 -9 -18 0 -8 -7 -17 -15 -20 -8 -4 -12 -10 -9 -15 3 -5 0
-9 -5 -9 -6 0 -11 -7 -11 -15 0 -8 -9 -20 -20 -27 -11 -7 -20 -16 -20 -21 0
-4 -5 -13 -10 -20 -24 -28 -210 -279 -210 -284 0 -2 -6 -10 -12 -18 -18 -19
-40 -48 -111 -145 -34 -47 -65 -86 -69 -88 -5 -2 -8 -10 -8 -17 0 -7 -3 -15
-7 -17 -12 -5 -103 -127 -103 -137 0 -5 -4 -11 -8 -13 -7 -2 -100 -124 -152
-198 -8 -12 -72 -99 -143 -193 -70 -95 -135 -183 -145 -196 -9 -13 -23 -30
-29 -37 -7 -7 -13 -17 -13 -22 0 -6 -3 -12 -8 -14 -4 -1 -52 -64 -106 -138
-55 -74 -103 -136 -108 -138 -4 -2 -8 -10 -8 -18 0 -8 -4 -14 -8 -14 -4 0 -15
-12 -24 -27 -9 -16 -24 -37 -32 -48 -16 -20 -112 -150 -144 -194 -9 -13 -35
-47 -57 -76 -22 -29 -49 -66 -60 -81 -11 -15 -26 -33 -32 -40 -7 -7 -13 -15
-13 -18 0 -6 -125 -174 -151 -202 -10 -12 -19 -25 -19 -28 0 -7 -49 -73 -82
-110 -10 -11 -18 -23 -18 -27 0 -3 -13 -22 -30 -40 -16 -19 -30 -37 -30 -41 0
-4 -6 -13 -13 -20 -7 -7 -23 -29 -36 -48 -13 -19 -29 -39 -35 -45 -7 -5 -21
-24 -31 -42 -11 -18 -48 -68 -83 -113 -34 -44 -62 -82 -62 -85 0 -3 -8 -14
-17 -26 -31 -36 -47 -58 -73 -94 -14 -20 -45 -63 -70 -95 -25 -33 -63 -85 -85
-115 -22 -31 -50 -67 -61 -81 l-21 -26 -1 2638 c0 1452 -1 2646 -1 2655 -1 15
-102 16 -1156 16 -636 0 -1157 -3 -1159 -6z"/>
</g>
</svg>
